<svg width="323" height="158" viewBox="0 0 323 158" fill="none" xmlns="http://www.w3.org/2000/svg">
<rect x="1" y="99" width="77" height="58" rx="5" stroke="white" stroke-width="2"/>
<path d="M9.19434 141.732C9.19434 143.646 10.2676 145.116 12.1748 145.116C13.8223 145.116 14.7246 144.255 14.9639 143.024H13.8086C13.6787 143.599 13.1523 144.077 12.2568 144.077C11.1084 144.077 10.3701 143.147 10.3701 141.739V141.069C10.3701 139.62 11.0605 138.738 12.25 138.738C13.0293 138.738 13.5967 139.292 13.7539 139.9H14.9092C14.8477 138.8 13.8359 137.699 12.1748 137.699C10.3018 137.699 9.19434 139.087 9.19434 141.021V141.732ZM19.4072 137.699C17.3975 137.699 16.3174 139.155 16.3174 141.076V141.719C16.3174 143.667 17.3906 145.116 19.4072 145.116C21.4238 145.116 22.4834 143.667 22.4834 141.719V141.076C22.4834 139.155 21.417 137.699 19.4072 137.699ZM19.4072 138.704C20.6377 138.704 21.3076 139.647 21.3076 141.117V141.678C21.3076 143.147 20.6377 144.098 19.4072 144.098C18.1699 144.098 17.4932 143.141 17.4932 141.678V141.117C17.4932 139.647 18.1699 138.704 19.4072 138.704ZM24.3018 145H25.4775V140.447C25.4775 139.36 26.168 138.759 27.0498 138.759C28.0273 138.759 28.6152 139.36 28.6152 140.461V145H29.7842V140.461C29.7842 139.463 30.3516 138.759 31.3701 138.759C32.3955 138.759 32.9219 139.436 32.9219 140.352V145H34.0908V140.112C34.0908 138.636 33.1953 137.699 31.6777 137.699C30.5088 137.699 29.75 138.239 29.4766 138.854H29.4219C29.1416 138.15 28.4717 137.699 27.3506 137.699C26.4004 137.699 25.7646 138.205 25.5322 138.697H25.4707V137.815H24.3018V145ZM36.1553 145H37.3311V140.447C37.3311 139.36 38.0215 138.759 38.9033 138.759C39.8809 138.759 40.4688 139.36 40.4688 140.461V145H41.6377V140.461C41.6377 139.463 42.2051 138.759 43.2236 138.759C44.249 138.759 44.7754 139.436 44.7754 140.352V145H45.9443V140.112C45.9443 138.636 45.0488 137.699 43.5312 137.699C42.3623 137.699 41.6035 138.239 41.3301 138.854H41.2754C40.9951 138.15 40.3252 137.699 39.2041 137.699C38.2539 137.699 37.6182 138.205 37.3857 138.697H37.3242V137.815H36.1553V145ZM52.0215 144.104H52.0557V145H53.1836V140.044C53.1836 138.533 52.0693 137.699 50.5381 137.699C48.8018 137.699 47.9473 138.615 47.8721 139.873H48.9795C49.0479 139.155 49.5742 138.684 50.4971 138.684C51.4678 138.684 52.0146 139.203 52.0146 140.146V140.878H50.1211C48.4736 140.885 47.5986 141.678 47.5986 142.936C47.5986 144.255 48.5557 145.116 49.9434 145.116C51.0029 145.116 51.6592 144.686 52.0215 144.104ZM50.2578 144.139C49.5059 144.139 48.8018 143.742 48.8018 142.895C48.8018 142.245 49.2256 141.78 50.21 141.78H52.0146V142.614C52.0146 143.51 51.2627 144.139 50.2578 144.139ZM55.2139 145H56.3896V140.625C56.3896 139.641 56.9229 138.766 58.1602 138.766C59.2061 138.766 59.917 139.381 59.917 140.591V145H61.0928V140.393C61.0928 138.643 59.9922 137.699 58.5156 137.699C57.3467 137.699 56.6836 138.308 56.417 138.766H56.3828V137.815H55.2139V145ZM65.6592 137.706C63.8477 137.706 62.7881 139.128 62.7881 141.083V141.732C62.7881 143.735 63.7861 145.109 65.6592 145.109C66.623 145.109 67.375 144.658 67.7783 143.92H67.8057V145H68.9336V135.177H67.7578V138.813H67.7236C67.3613 138.178 66.6094 137.706 65.6592 137.706ZM65.8232 138.731C67.0332 138.731 67.7783 139.675 67.7783 141.124V141.698C67.7783 143.223 67.0469 144.084 65.8438 144.084C64.7568 144.084 63.9707 143.291 63.9707 141.691V141.124C63.9707 139.524 64.7568 138.731 65.8232 138.731Z" fill="white"/>
<path d="M61.8789 114.251V116.418H60.9561C59.9238 116.418 59.083 117.225 59.083 118.264C59.083 119.303 59.9238 120.144 60.9561 120.144C61.9883 120.144 62.8291 119.303 62.8291 118.264V117.348H64.9551V118.264C64.9551 119.303 65.7959 120.144 66.8281 120.144C67.8604 120.144 68.7012 119.303 68.7012 118.264C68.7012 117.225 67.8604 116.418 66.8281 116.418H65.8984V114.251H66.8281C67.8604 114.251 68.7012 113.444 68.7012 112.405C68.7012 111.366 67.8604 110.525 66.8281 110.525C65.7959 110.525 64.9551 111.366 64.9551 112.405V113.328H62.8291V112.405C62.8291 111.366 61.9883 110.525 60.9561 110.525C59.9238 110.525 59.083 111.366 59.083 112.405C59.083 113.444 59.9238 114.251 60.9561 114.251H61.8789ZM60.9629 113.335C60.4502 113.335 60.0332 112.918 60.0332 112.405C60.0332 111.893 60.4502 111.476 60.9561 111.476C61.4619 111.476 61.8789 111.893 61.8789 112.412V113.335H60.9629ZM66.8213 113.335H65.8984V112.412C65.8984 111.893 66.3223 111.476 66.8281 111.476C67.334 111.476 67.751 111.893 67.751 112.405C67.751 112.918 67.334 113.335 66.8213 113.335ZM62.8291 116.425V114.244H64.9551V116.425H62.8291ZM60.9629 117.327H61.8789V118.257C61.8789 118.77 61.4619 119.187 60.9561 119.187C60.4502 119.187 60.0332 118.77 60.0332 118.257C60.0332 117.744 60.4502 117.327 60.9629 117.327ZM66.8213 117.327C67.334 117.327 67.751 117.744 67.751 118.257C67.751 118.77 67.334 119.187 66.8281 119.187C66.3223 119.187 65.8984 118.77 65.8984 118.257V117.327H66.8213Z" fill="white"/>
<rect x="1" y="1" width="77" height="58" rx="5" stroke="white" stroke-width="2"/>
<path d="M9.19434 43.7324C9.19434 45.6465 10.2676 47.1162 12.1748 47.1162C13.8223 47.1162 14.7246 46.2549 14.9639 45.0244H13.8086C13.6787 45.5986 13.1523 46.0771 12.2568 46.0771C11.1084 46.0771 10.3701 45.1475 10.3701 43.7393V43.0693C10.3701 41.6201 11.0605 40.7383 12.25 40.7383C13.0293 40.7383 13.5967 41.292 13.7539 41.9004H14.9092C14.8477 40.7998 13.8359 39.6992 12.1748 39.6992C10.3018 39.6992 9.19434 41.0869 9.19434 43.0215V43.7324ZM19.4072 39.6992C17.3975 39.6992 16.3174 41.1553 16.3174 43.0762V43.7188C16.3174 45.667 17.3906 47.1162 19.4072 47.1162C21.4238 47.1162 22.4834 45.667 22.4834 43.7188V43.0762C22.4834 41.1553 21.417 39.6992 19.4072 39.6992ZM19.4072 40.7041C20.6377 40.7041 21.3076 41.6475 21.3076 43.1172V43.6777C21.3076 45.1475 20.6377 46.0977 19.4072 46.0977C18.1699 46.0977 17.4932 45.1406 17.4932 43.6777V43.1172C17.4932 41.6475 18.1699 40.7041 19.4072 40.7041ZM24.3018 47H25.4775V42.4473C25.4775 41.3604 26.168 40.7588 27.0498 40.7588C28.0273 40.7588 28.6152 41.3604 28.6152 42.4609V47H29.7842V42.4609C29.7842 41.4629 30.3516 40.7588 31.3701 40.7588C32.3955 40.7588 32.9219 41.4355 32.9219 42.3516V47H34.0908V42.1123C34.0908 40.6357 33.1953 39.6992 31.6777 39.6992C30.5088 39.6992 29.75 40.2393 29.4766 40.8545H29.4219C29.1416 40.1504 28.4717 39.6992 27.3506 39.6992C26.4004 39.6992 25.7646 40.2051 25.5322 40.6973H25.4707V39.8154H24.3018V47ZM36.1553 47H37.3311V42.4473C37.3311 41.3604 38.0215 40.7588 38.9033 40.7588C39.8809 40.7588 40.4688 41.3604 40.4688 42.4609V47H41.6377V42.4609C41.6377 41.4629 42.2051 40.7588 43.2236 40.7588C44.249 40.7588 44.7754 41.4355 44.7754 42.3516V47H45.9443V42.1123C45.9443 40.6357 45.0488 39.6992 43.5312 39.6992C42.3623 39.6992 41.6035 40.2393 41.3301 40.8545H41.2754C40.9951 40.1504 40.3252 39.6992 39.2041 39.6992C38.2539 39.6992 37.6182 40.2051 37.3857 40.6973H37.3242V39.8154H36.1553V47ZM52.0215 46.1045H52.0557V47H53.1836V42.0439C53.1836 40.5332 52.0693 39.6992 50.5381 39.6992C48.8018 39.6992 47.9473 40.6152 47.8721 41.873H48.9795C49.0479 41.1553 49.5742 40.6836 50.4971 40.6836C51.4678 40.6836 52.0146 41.2031 52.0146 42.1465V42.8779H50.1211C48.4736 42.8848 47.5986 43.6777 47.5986 44.9355C47.5986 46.2549 48.5557 47.1162 49.9434 47.1162C51.0029 47.1162 51.6592 46.6855 52.0215 46.1045ZM50.2578 46.1387C49.5059 46.1387 48.8018 45.7422 48.8018 44.8945C48.8018 44.2451 49.2256 43.7803 50.21 43.7803H52.0146V44.6143C52.0146 45.5098 51.2627 46.1387 50.2578 46.1387ZM55.2139 47H56.3896V42.625C56.3896 41.6406 56.9229 40.7656 58.1602 40.7656C59.2061 40.7656 59.917 41.3809 59.917 42.5908V47H61.0928V42.3926C61.0928 40.6426 59.9922 39.6992 58.5156 39.6992C57.3467 39.6992 56.6836 40.3076 56.417 40.7656H56.3828V39.8154H55.2139V47ZM65.6592 39.7061C63.8477 39.7061 62.7881 41.1279 62.7881 43.083V43.7324C62.7881 45.7354 63.7861 47.1094 65.6592 47.1094C66.623 47.1094 67.375 46.6582 67.7783 45.9199H67.8057V47H68.9336V37.1768H67.7578V40.8135H67.7236C67.3613 40.1777 66.6094 39.7061 65.6592 39.7061ZM65.8232 40.7314C67.0332 40.7314 67.7783 41.6748 67.7783 43.124V43.6982C67.7783 45.2227 67.0469 46.084 65.8438 46.084C64.7568 46.084 63.9707 45.291 63.9707 43.6914V43.124C63.9707 41.5244 64.7568 40.7314 65.8232 40.7314Z" fill="white"/>
<path d="M61.8789 16.251V18.418H60.9561C59.9238 18.418 59.083 19.2246 59.083 20.2637C59.083 21.3027 59.9238 22.1436 60.9561 22.1436C61.9883 22.1436 62.8291 21.3027 62.8291 20.2637V19.3477H64.9551V20.2637C64.9551 21.3027 65.7959 22.1436 66.8281 22.1436C67.8604 22.1436 68.7012 21.3027 68.7012 20.2637C68.7012 19.2246 67.8604 18.418 66.8281 18.418H65.8984V16.251H66.8281C67.8604 16.251 68.7012 15.4443 68.7012 14.4053C68.7012 13.3662 67.8604 12.5254 66.8281 12.5254C65.7959 12.5254 64.9551 13.3662 64.9551 14.4053V15.3281H62.8291V14.4053C62.8291 13.3662 61.9883 12.5254 60.9561 12.5254C59.9238 12.5254 59.083 13.3662 59.083 14.4053C59.083 15.4443 59.9238 16.251 60.9561 16.251H61.8789ZM60.9629 15.335C60.4502 15.335 60.0332 14.918 60.0332 14.4053C60.0332 13.8926 60.4502 13.4756 60.9561 13.4756C61.4619 13.4756 61.8789 13.8926 61.8789 14.4121V15.335H60.9629ZM66.8213 15.335H65.8984V14.4121C65.8984 13.8926 66.3223 13.4756 66.8281 13.4756C67.334 13.4756 67.751 13.8926 67.751 14.4053C67.751 14.918 67.334 15.335 66.8213 15.335ZM62.8291 18.4248V16.2441H64.9551V18.4248H62.8291ZM60.9629 19.3271H61.8789V20.2568C61.8789 20.7695 61.4619 21.1865 60.9561 21.1865C60.4502 21.1865 60.0332 20.7695 60.0332 20.2568C60.0332 19.7441 60.4502 19.3271 60.9629 19.3271ZM66.8213 19.3271C67.334 19.3271 67.751 19.7441 67.751 20.2568C67.751 20.7695 67.334 21.1865 66.8281 21.1865C66.3223 21.1865 65.8984 20.7695 65.8984 20.2568V19.3271H66.8213Z" fill="white"/>
<rect x="107" y="99" width="60" height="58" rx="5" stroke="white" stroke-width="2"/>
<path d="M143.075 136V121.337H141.195V127.578H133.815V121.337H131.936V136H133.815V129.243H141.195V136H143.075Z" fill="white"/>
<rect x="107" y="1" width="60" height="58" rx="5" stroke="white" stroke-width="2"/>
<path d="M143.376 31.8232V29.6641C143.376 25.4961 141.077 23.0254 137.521 23.0254C133.966 23.0254 131.624 25.4961 131.624 29.6641V31.8232C131.624 35.9697 133.923 38.3115 137.479 38.3115C141.045 38.3115 143.376 35.9697 143.376 31.8232ZM141.496 29.6533V31.8232C141.496 35.1104 139.767 36.625 137.5 36.625C135.244 36.625 133.504 35.1104 133.504 31.8232V29.6533C133.504 26.377 135.244 24.7119 137.5 24.7119C139.767 24.7119 141.496 26.377 141.496 29.6533Z" fill="white"/>
<path d="M93.328 30.636H96.55V29.214H93.328V25.704H91.762V29.214H88.522V30.636H91.762V34.29H93.328V30.636Z" fill="white"/>
<path d="M93.328 128.636H96.55V127.214H93.328V123.704H91.762V127.214H88.522V128.636H91.762V132.29H93.328V128.636Z" fill="white"/>
<path d="M177.522 29.016H185.55V27.576H177.522V29.016ZM177.522 32.382H185.55V30.978H177.522V32.382Z" fill="white"/>
<path d="M177.522 126.016H185.55V124.576H177.522V126.016ZM177.522 129.382H185.55V127.978H177.522V129.382Z" fill="white"/>
<path d="M202.816 20.672C202.816 23.824 204.944 26.192 208.112 26.192C211.264 26.192 213.408 23.824 213.408 20.672C213.408 17.52 211.264 15.152 208.112 15.152C204.944 15.152 202.816 17.52 202.816 20.672ZM212.032 20.672C212.032 23.152 210.496 25.008 208.112 25.008C205.712 25.008 204.192 23.152 204.192 20.672C204.192 18.176 205.712 16.336 208.112 16.336C210.496 16.336 212.032 18.176 212.032 20.672ZM216.634 28.944V24.832C217.258 25.696 218.186 26.192 219.242 26.192C221.274 26.192 222.682 24.624 222.682 22.128C222.682 19.616 221.274 18.08 219.242 18.08C218.154 18.08 217.194 18.64 216.634 19.424V18.272H215.434V28.944H216.634ZM221.418 22.128C221.418 23.84 220.49 25.12 218.938 25.12C217.994 25.12 217.05 24.544 216.634 23.872V20.384C217.05 19.712 217.994 19.152 218.938 19.152C220.49 19.152 221.418 20.416 221.418 22.128ZM224.174 22.128C224.174 24.544 225.822 26.192 228.11 26.192C229.374 26.192 230.414 25.776 231.182 25.008L230.606 24.224C229.998 24.848 229.102 25.2 228.222 25.2C226.558 25.2 225.534 23.984 225.438 22.528H231.694V22.224C231.694 19.904 230.318 18.08 227.982 18.08C225.774 18.08 224.174 19.888 224.174 22.128ZM227.966 19.072C229.726 19.072 230.494 20.496 230.51 21.648H225.438C225.502 20.464 226.318 19.072 227.966 19.072ZM238.854 26H240.054V20.576C240.054 18.896 239.206 18.08 237.59 18.08C236.438 18.08 235.382 18.752 234.838 19.392V18.272H233.638V26H234.838V20.352C235.286 19.728 236.182 19.152 237.126 19.152C238.166 19.152 238.854 19.584 238.854 20.944V26ZM248.527 26.192C249.231 26.192 249.663 25.984 249.967 25.696L249.615 24.8C249.455 24.976 249.135 25.12 248.799 25.12C248.271 25.12 248.015 24.704 248.015 24.128V19.328H249.583V18.272H248.015V16.16H246.815V18.272H245.535V19.328H246.815V24.384C246.815 25.536 247.391 26.192 248.527 26.192ZM256.51 26H257.71V20.544C257.71 18.864 256.862 18.08 255.246 18.08C254.078 18.08 253.022 18.752 252.478 19.392V15.328H251.278V26H252.478V20.352C252.942 19.728 253.838 19.152 254.766 19.152C255.806 19.152 256.51 19.552 256.51 20.912V26ZM259.658 22.128C259.658 24.544 261.306 26.192 263.594 26.192C264.858 26.192 265.898 25.776 266.666 25.008L266.09 24.224C265.482 24.848 264.586 25.2 263.706 25.2C262.042 25.2 261.018 23.984 260.922 22.528H267.178V22.224C267.178 19.904 265.802 18.08 263.466 18.08C261.258 18.08 259.658 19.888 259.658 22.128ZM263.45 19.072C265.21 19.072 265.978 20.496 265.994 21.648H260.922C260.986 20.464 261.802 19.072 263.45 19.072ZM202.816 39.672C202.816 42.824 204.944 45.192 208.112 45.192C211.264 45.192 213.408 42.824 213.408 39.672C213.408 36.52 211.264 34.152 208.112 34.152C204.944 34.152 202.816 36.52 202.816 39.672ZM212.032 39.672C212.032 42.152 210.496 44.008 208.112 44.008C205.712 44.008 204.192 42.152 204.192 39.672C204.192 37.176 205.712 35.336 208.112 35.336C210.496 35.336 212.032 37.176 212.032 39.672ZM224.762 45H225.962V39.416C225.962 37.864 225.21 37.08 223.802 37.08C222.682 37.08 221.642 37.816 221.21 38.52C220.986 37.72 220.314 37.08 219.13 37.08C217.994 37.08 216.954 37.896 216.634 38.392V37.272H215.434V45H216.634V39.352C217.05 38.728 217.882 38.152 218.666 38.152C219.674 38.152 220.09 38.776 220.09 39.752V45H221.29V39.336C221.69 38.728 222.538 38.152 223.338 38.152C224.33 38.152 224.762 38.776 224.762 39.752V45ZM233.572 45H234.772V39.576C234.772 37.896 233.924 37.08 232.308 37.08C231.156 37.08 230.1 37.752 229.556 38.392V37.272H228.356V45H229.556V39.352C230.004 38.728 230.9 38.152 231.844 38.152C232.884 38.152 233.572 38.584 233.572 39.944V45ZM237.761 35.976C238.209 35.976 238.577 35.608 238.577 35.16C238.577 34.712 238.209 34.36 237.761 34.36C237.329 34.36 236.961 34.712 236.961 35.16C236.961 35.608 237.329 35.976 237.761 35.976ZM237.169 45H238.369V37.272H237.169V45ZM240.763 45H241.963V43.848C242.539 44.632 243.483 45.192 244.571 45.192C246.587 45.192 248.01 43.656 248.01 41.144C248.01 38.68 246.587 37.08 244.571 37.08C243.515 37.08 242.587 37.592 241.963 38.44V34.328H240.763V45ZM241.963 42.904V39.4C242.379 38.728 243.323 38.152 244.266 38.152C245.835 38.152 246.763 39.432 246.763 41.144C246.763 42.856 245.835 44.12 244.266 44.12C243.323 44.12 242.379 43.576 241.963 42.904ZM254.798 45H255.998V39.688C255.998 37.816 254.638 37.08 253.006 37.08C251.742 37.08 250.75 37.496 249.918 38.36L250.478 39.192C251.166 38.456 251.918 38.12 252.846 38.12C253.966 38.12 254.798 38.712 254.798 39.752V41.144C254.174 40.424 253.294 40.088 252.238 40.088C250.926 40.088 249.534 40.904 249.534 42.632C249.534 44.312 250.926 45.192 252.238 45.192C253.278 45.192 254.158 44.824 254.798 44.12V45ZM254.798 43.368C254.334 44.008 253.518 44.328 252.67 44.328C251.55 44.328 250.766 43.624 250.766 42.648C250.766 41.656 251.55 40.952 252.67 40.952C253.518 40.952 254.334 41.272 254.798 41.912V43.368ZM258.403 45H259.603V39.528C259.955 38.904 260.963 38.296 261.699 38.296C261.891 38.296 262.035 38.312 262.179 38.344V37.112C261.123 37.112 260.227 37.704 259.603 38.52V37.272H258.403V45Z" fill="white"/>
<path d="M202.608 121.496C203.488 122.488 204.848 123.192 206.704 123.192C209.584 123.192 210.64 121.608 210.64 120.056C210.64 117.816 208.656 117.272 206.912 116.808C205.552 116.44 204.32 116.12 204.32 115.048C204.32 114.04 205.232 113.352 206.512 113.352C207.68 113.352 208.8 113.752 209.6 114.632L210.4 113.656C209.504 112.712 208.24 112.168 206.608 112.168C204.512 112.168 202.944 113.368 202.944 115.128C202.944 117.224 204.848 117.704 206.56 118.152C207.968 118.536 209.264 118.888 209.264 120.168C209.264 120.984 208.656 122.008 206.752 122.008C205.248 122.008 204.096 121.272 203.392 120.488L202.608 121.496ZM217.807 123H219.007V117.544C219.007 115.864 218.159 115.08 216.543 115.08C215.375 115.08 214.319 115.752 213.775 116.392V112.328H212.575V123H213.775V117.352C214.239 116.728 215.135 116.152 216.063 116.152C217.103 116.152 217.807 116.552 217.807 117.912V123ZM224.779 123.192C227.131 123.192 228.603 121.368 228.603 119.128C228.603 116.888 227.131 115.08 224.779 115.08C222.427 115.08 220.955 116.888 220.955 119.128C220.955 121.368 222.427 123.192 224.779 123.192ZM224.779 122.12C223.131 122.12 222.203 120.712 222.203 119.128C222.203 117.56 223.131 116.152 224.779 116.152C226.427 116.152 227.339 117.56 227.339 119.128C227.339 120.712 226.427 122.12 224.779 122.12ZM237.247 123H238.447L240.911 115.272H239.663L237.775 121.432L235.743 115.272H234.719L232.687 121.432L230.799 115.272H229.551L232.015 123H233.215L235.231 116.792L237.247 123ZM251.266 123H252.466V117.688C252.466 115.816 251.106 115.08 249.474 115.08C248.21 115.08 247.218 115.496 246.386 116.36L246.946 117.192C247.634 116.456 248.386 116.12 249.314 116.12C250.434 116.12 251.266 116.712 251.266 117.752V119.144C250.642 118.424 249.762 118.088 248.706 118.088C247.394 118.088 246.002 118.904 246.002 120.632C246.002 122.312 247.394 123.192 248.706 123.192C249.746 123.192 250.626 122.824 251.266 122.12V123ZM251.266 121.368C250.802 122.008 249.986 122.328 249.138 122.328C248.018 122.328 247.234 121.624 247.234 120.648C247.234 119.656 248.018 118.952 249.138 118.952C249.986 118.952 250.802 119.272 251.266 119.912V121.368ZM260.088 123H261.288V117.576C261.288 115.896 260.44 115.08 258.824 115.08C257.672 115.08 256.616 115.752 256.072 116.392V115.272H254.872V123H256.072V117.352C256.52 116.728 257.416 116.152 258.36 116.152C259.4 116.152 260.088 116.584 260.088 117.944V123ZM269.284 123H270.484V112.328H269.284V116.44C268.66 115.592 267.716 115.08 266.676 115.08C264.644 115.08 263.236 116.68 263.236 119.144C263.236 121.656 264.66 123.192 266.676 123.192C267.764 123.192 268.708 122.632 269.284 121.848V123ZM269.284 120.904C268.852 121.576 267.924 122.12 266.964 122.12C265.412 122.12 264.484 120.856 264.484 119.144C264.484 117.432 265.412 116.152 266.964 116.152C267.924 116.152 268.852 116.728 269.284 117.4V120.904ZM282.245 123H283.445V117.544C283.445 115.864 282.597 115.08 280.981 115.08C279.812 115.08 278.757 115.752 278.213 116.392V112.328H277.013V123H278.213V117.352C278.677 116.728 279.573 116.152 280.501 116.152C281.541 116.152 282.245 116.552 282.245 117.912V123ZM286.433 113.976C286.881 113.976 287.249 113.608 287.249 113.16C287.249 112.712 286.881 112.36 286.433 112.36C286.001 112.36 285.633 112.712 285.633 113.16C285.633 113.608 286.001 113.976 286.433 113.976ZM285.841 123H287.041V115.272H285.841V123ZM295.034 123H296.234V112.328H295.034V116.44C294.41 115.592 293.466 115.08 292.426 115.08C290.394 115.08 288.986 116.68 288.986 119.144C288.986 121.656 290.41 123.192 292.426 123.192C293.514 123.192 294.458 122.632 295.034 121.848V123ZM295.034 120.904C294.602 121.576 293.674 122.12 292.714 122.12C291.162 122.12 290.234 120.856 290.234 119.144C290.234 117.432 291.162 116.152 292.714 116.152C293.674 116.152 294.602 116.728 295.034 117.4V120.904ZM298.19 119.128C298.19 121.544 299.838 123.192 302.126 123.192C303.39 123.192 304.43 122.776 305.198 122.008L304.622 121.224C304.014 121.848 303.118 122.2 302.238 122.2C300.574 122.2 299.549 120.984 299.454 119.528H305.71V119.224C305.71 116.904 304.334 115.08 301.998 115.08C299.789 115.08 298.19 116.888 298.19 119.128ZM301.982 116.072C303.742 116.072 304.51 117.496 304.526 118.648H299.454C299.518 117.464 300.334 116.072 301.982 116.072ZM205.152 142.192C205.856 142.192 206.288 141.984 206.592 141.696L206.24 140.8C206.08 140.976 205.76 141.12 205.424 141.12C204.896 141.12 204.64 140.704 204.64 140.128V135.328H206.208V134.272H204.64V132.16H203.44V134.272H202.16V135.328H203.44V140.384C203.44 141.536 204.016 142.192 205.152 142.192ZM213.135 142H214.335V136.544C214.335 134.864 213.487 134.08 211.871 134.08C210.703 134.08 209.647 134.752 209.103 135.392V131.328H207.903V142H209.103V136.352C209.567 135.728 210.463 135.152 211.391 135.152C212.431 135.152 213.135 135.552 213.135 136.912V142ZM216.283 138.128C216.283 140.544 217.931 142.192 220.219 142.192C221.483 142.192 222.523 141.776 223.291 141.008L222.715 140.224C222.107 140.848 221.211 141.2 220.331 141.2C218.667 141.2 217.643 139.984 217.547 138.528H223.803V138.224C223.803 135.904 222.427 134.08 220.091 134.08C217.883 134.08 216.283 135.888 216.283 138.128ZM220.075 135.072C221.835 135.072 222.603 136.496 222.619 137.648H217.547C217.611 136.464 218.427 135.072 220.075 135.072ZM229.28 140.496C230.16 141.488 231.52 142.192 233.376 142.192C236.256 142.192 237.312 140.608 237.312 139.056C237.312 136.816 235.328 136.272 233.584 135.808C232.224 135.44 230.992 135.12 230.992 134.048C230.992 133.04 231.904 132.352 233.184 132.352C234.352 132.352 235.472 132.752 236.272 133.632L237.072 132.656C236.176 131.712 234.912 131.168 233.28 131.168C231.184 131.168 229.616 132.368 229.616 134.128C229.616 136.224 231.52 136.704 233.232 137.152C234.64 137.536 235.936 137.888 235.936 139.168C235.936 139.984 235.328 141.008 233.424 141.008C231.92 141.008 230.768 140.272 230.064 139.488L229.28 140.496ZM239.839 132.976C240.287 132.976 240.655 132.608 240.655 132.16C240.655 131.712 240.287 131.36 239.839 131.36C239.407 131.36 239.039 131.712 239.039 132.16C239.039 132.608 239.407 132.976 239.839 132.976ZM239.247 142H240.447V134.272H239.247V142ZM248.441 142H249.641V131.328H248.441V135.44C247.817 134.592 246.873 134.08 245.833 134.08C243.801 134.08 242.393 135.68 242.393 138.144C242.393 140.656 243.817 142.192 245.833 142.192C246.921 142.192 247.865 141.632 248.441 140.848V142ZM248.441 139.904C248.009 140.576 247.081 141.12 246.121 141.12C244.569 141.12 243.641 139.856 243.641 138.144C243.641 136.432 244.569 135.152 246.121 135.152C247.081 135.152 248.009 135.728 248.441 136.4V139.904ZM251.596 138.128C251.596 140.544 253.244 142.192 255.532 142.192C256.796 142.192 257.836 141.776 258.604 141.008L258.028 140.224C257.42 140.848 256.524 141.2 255.644 141.2C253.98 141.2 252.956 139.984 252.86 138.528H259.116V138.224C259.116 135.904 257.74 134.08 255.404 134.08C253.196 134.08 251.596 135.888 251.596 138.128ZM255.388 135.072C257.148 135.072 257.916 136.496 257.932 137.648H252.86C252.924 136.464 253.74 135.072 255.388 135.072ZM261.059 142H262.259V140.848C262.835 141.632 263.779 142.192 264.867 142.192C266.883 142.192 268.307 140.656 268.307 138.144C268.307 135.68 266.883 134.08 264.867 134.08C263.811 134.08 262.883 134.592 262.259 135.44V131.328H261.059V142ZM262.259 139.904V136.4C262.675 135.728 263.619 135.152 264.563 135.152C266.131 135.152 267.059 136.432 267.059 138.144C267.059 139.856 266.131 141.12 264.563 141.12C263.619 141.12 262.675 140.576 262.259 139.904ZM275.095 142H276.295V136.688C276.295 134.816 274.935 134.08 273.303 134.08C272.039 134.08 271.047 134.496 270.215 135.36L270.775 136.192C271.463 135.456 272.215 135.12 273.143 135.12C274.263 135.12 275.095 135.712 275.095 136.752V138.144C274.471 137.424 273.591 137.088 272.535 137.088C271.223 137.088 269.831 137.904 269.831 139.632C269.831 141.312 271.223 142.192 272.535 142.192C273.575 142.192 274.455 141.824 275.095 141.12V142ZM275.095 140.368C274.631 141.008 273.815 141.328 272.967 141.328C271.847 141.328 271.062 140.624 271.062 139.648C271.062 138.656 271.847 137.952 272.967 137.952C273.815 137.952 274.631 138.272 275.095 138.912V140.368ZM278.7 142H279.9V136.528C280.252 135.904 281.26 135.296 281.996 135.296C282.188 135.296 282.332 135.312 282.476 135.344V134.112C281.42 134.112 280.524 134.704 279.9 135.52V134.272H278.7V142Z" fill="white"/>
</svg>
