<svg width="323" height="158" viewBox="0 0 323 158" fill="none" xmlns="http://www.w3.org/2000/svg">
<rect x="1" y="99" width="77" height="58" rx="5" stroke="white" stroke-width="2"/>
<path d="M25.46 127.75C25.46 124.527 26.8564 122.712 29.3594 122.712C31.4219 122.712 32.8398 124.055 32.8936 126.01H34.7412V125.978C34.7412 123.099 32.4746 121.025 29.3486 121.025C25.7178 121.025 23.5908 123.539 23.5908 127.75V129.673C23.5908 133.841 25.7178 136.312 29.3486 136.312C32.4531 136.312 34.7412 134.324 34.7412 131.617V131.574H32.8936C32.8398 133.39 31.4219 134.625 29.3594 134.625C26.8564 134.625 25.46 132.842 25.46 129.673V127.75ZM38.168 124.71H36.6426V126.257H38.1572V132.842C38.1572 135.065 38.7051 136.097 41.3799 136.097C41.7666 136.097 42.1533 136.054 42.3145 136.021V134.539C42.1641 134.561 42.0244 134.561 41.8418 134.561C40.4561 134.561 40.0049 134.217 40.0049 132.863V126.257H42.2393V124.71H40.0049V121.896H38.168V124.71ZM45.0859 136H46.9443V129.007C46.9443 127.481 47.5674 126.235 49.5654 126.235C49.9092 126.235 50.2744 126.246 50.4678 126.278V124.592C50.2422 124.56 50.0059 124.538 49.7695 124.538C48.1689 124.538 47.3203 125.419 46.9873 126.096H46.9336V124.71H45.0859V136ZM53.0244 136H54.8613V120.563H53.0244V136Z" fill="white"/>
<rect x="1" y="1" width="77" height="58" rx="5" stroke="white" stroke-width="2"/>
<path d="M25.46 29.75C25.46 26.5273 26.8564 24.7119 29.3594 24.7119C31.4219 24.7119 32.8398 26.0547 32.8936 28.0098H34.7412V27.9775C34.7412 25.0986 32.4746 23.0254 29.3486 23.0254C25.7178 23.0254 23.5908 25.5391 23.5908 29.75V31.6729C23.5908 35.8408 25.7178 38.3115 29.3486 38.3115C32.4531 38.3115 34.7412 36.3242 34.7412 33.6172V33.5742H32.8936C32.8398 35.3896 31.4219 36.625 29.3594 36.625C26.8564 36.625 25.46 34.8418 25.46 31.6729V29.75ZM38.168 26.71H36.6426V28.2568H38.1572V34.8418C38.1572 37.0654 38.7051 38.0967 41.3799 38.0967C41.7666 38.0967 42.1533 38.0537 42.3145 38.0215V36.5391C42.1641 36.5605 42.0244 36.5605 41.8418 36.5605C40.4561 36.5605 40.0049 36.2168 40.0049 34.8633V28.2568H42.2393V26.71H40.0049V23.8955H38.168V26.71ZM45.0859 38H46.9443V31.0068C46.9443 29.4814 47.5674 28.2354 49.5654 28.2354C49.9092 28.2354 50.2744 28.2461 50.4678 28.2783V26.5918C50.2422 26.5596 50.0059 26.5381 49.7695 26.5381C48.1689 26.5381 47.3203 27.4189 46.9873 28.0957H46.9336V26.71H45.0859V38ZM53.0244 38H54.8613V22.5635H53.0244V38Z" fill="white"/>
<rect x="107" y="99" width="60" height="58" rx="5" stroke="white" stroke-width="2"/>
<path d="M143.075 136V121.337H141.195V127.578H133.815V121.337H131.936V136H133.815V129.243H141.195V136H143.075Z" fill="white"/>
<rect x="107" y="1" width="60" height="58" rx="5" stroke="white" stroke-width="2"/>
<path d="M143.376 31.8232V29.6641C143.376 25.4961 141.077 23.0254 137.521 23.0254C133.966 23.0254 131.624 25.4961 131.624 29.6641V31.8232C131.624 35.9697 133.923 38.3115 137.479 38.3115C141.045 38.3115 143.376 35.9697 143.376 31.8232ZM141.496 29.6533V31.8232C141.496 35.1104 139.767 36.625 137.5 36.625C135.244 36.625 133.504 35.1104 133.504 31.8232V29.6533C133.504 26.377 135.244 24.7119 137.5 24.7119C139.767 24.7119 141.496 26.377 141.496 29.6533Z" fill="white"/>
<path d="M93.328 30.636H96.55V29.214H93.328V25.704H91.762V29.214H88.522V30.636H91.762V34.29H93.328V30.636Z" fill="white"/>
<path d="M93.328 128.636H96.55V127.214H93.328V123.704H91.762V127.214H88.522V128.636H91.762V132.29H93.328V128.636Z" fill="white"/>
<path d="M177.522 29.016H185.55V27.576H177.522V29.016ZM177.522 32.382H185.55V30.978H177.522V32.382Z" fill="white"/>
<path d="M177.522 126.016H185.55V124.576H177.522V126.016ZM177.522 129.382H185.55V127.978H177.522V129.382Z" fill="white"/>
<path d="M202.816 20.672C202.816 23.824 204.944 26.192 208.112 26.192C211.264 26.192 213.408 23.824 213.408 20.672C213.408 17.52 211.264 15.152 208.112 15.152C204.944 15.152 202.816 17.52 202.816 20.672ZM212.032 20.672C212.032 23.152 210.496 25.008 208.112 25.008C205.712 25.008 204.192 23.152 204.192 20.672C204.192 18.176 205.712 16.336 208.112 16.336C210.496 16.336 212.032 18.176 212.032 20.672ZM216.634 28.944V24.832C217.258 25.696 218.186 26.192 219.242 26.192C221.274 26.192 222.682 24.624 222.682 22.128C222.682 19.616 221.274 18.08 219.242 18.08C218.154 18.08 217.194 18.64 216.634 19.424V18.272H215.434V28.944H216.634ZM221.418 22.128C221.418 23.84 220.49 25.12 218.938 25.12C217.994 25.12 217.05 24.544 216.634 23.872V20.384C217.05 19.712 217.994 19.152 218.938 19.152C220.49 19.152 221.418 20.416 221.418 22.128ZM224.174 22.128C224.174 24.544 225.822 26.192 228.11 26.192C229.374 26.192 230.414 25.776 231.182 25.008L230.606 24.224C229.998 24.848 229.102 25.2 228.222 25.2C226.558 25.2 225.534 23.984 225.438 22.528H231.694V22.224C231.694 19.904 230.318 18.08 227.982 18.08C225.774 18.08 224.174 19.888 224.174 22.128ZM227.966 19.072C229.726 19.072 230.494 20.496 230.51 21.648H225.438C225.502 20.464 226.318 19.072 227.966 19.072ZM238.854 26H240.054V20.576C240.054 18.896 239.206 18.08 237.59 18.08C236.438 18.08 235.382 18.752 234.838 19.392V18.272H233.638V26H234.838V20.352C235.286 19.728 236.182 19.152 237.126 19.152C238.166 19.152 238.854 19.584 238.854 20.944V26ZM248.527 26.192C249.231 26.192 249.663 25.984 249.967 25.696L249.615 24.8C249.455 24.976 249.135 25.12 248.799 25.12C248.271 25.12 248.015 24.704 248.015 24.128V19.328H249.583V18.272H248.015V16.16H246.815V18.272H245.535V19.328H246.815V24.384C246.815 25.536 247.391 26.192 248.527 26.192ZM256.51 26H257.71V20.544C257.71 18.864 256.862 18.08 255.246 18.08C254.078 18.08 253.022 18.752 252.478 19.392V15.328H251.278V26H252.478V20.352C252.942 19.728 253.838 19.152 254.766 19.152C255.806 19.152 256.51 19.552 256.51 20.912V26ZM259.658 22.128C259.658 24.544 261.306 26.192 263.594 26.192C264.858 26.192 265.898 25.776 266.666 25.008L266.09 24.224C265.482 24.848 264.586 25.2 263.706 25.2C262.042 25.2 261.018 23.984 260.922 22.528H267.178V22.224C267.178 19.904 265.802 18.08 263.466 18.08C261.258 18.08 259.658 19.888 259.658 22.128ZM263.45 19.072C265.21 19.072 265.978 20.496 265.994 21.648H260.922C260.986 20.464 261.802 19.072 263.45 19.072ZM202.816 39.672C202.816 42.824 204.944 45.192 208.112 45.192C211.264 45.192 213.408 42.824 213.408 39.672C213.408 36.52 211.264 34.152 208.112 34.152C204.944 34.152 202.816 36.52 202.816 39.672ZM212.032 39.672C212.032 42.152 210.496 44.008 208.112 44.008C205.712 44.008 204.192 42.152 204.192 39.672C204.192 37.176 205.712 35.336 208.112 35.336C210.496 35.336 212.032 37.176 212.032 39.672ZM224.762 45H225.962V39.416C225.962 37.864 225.21 37.08 223.802 37.08C222.682 37.08 221.642 37.816 221.21 38.52C220.986 37.72 220.314 37.08 219.13 37.08C217.994 37.08 216.954 37.896 216.634 38.392V37.272H215.434V45H216.634V39.352C217.05 38.728 217.882 38.152 218.666 38.152C219.674 38.152 220.09 38.776 220.09 39.752V45H221.29V39.336C221.69 38.728 222.538 38.152 223.338 38.152C224.33 38.152 224.762 38.776 224.762 39.752V45ZM233.572 45H234.772V39.576C234.772 37.896 233.924 37.08 232.308 37.08C231.156 37.08 230.1 37.752 229.556 38.392V37.272H228.356V45H229.556V39.352C230.004 38.728 230.9 38.152 231.844 38.152C232.884 38.152 233.572 38.584 233.572 39.944V45ZM237.761 35.976C238.209 35.976 238.577 35.608 238.577 35.16C238.577 34.712 238.209 34.36 237.761 34.36C237.329 34.36 236.961 34.712 236.961 35.16C236.961 35.608 237.329 35.976 237.761 35.976ZM237.169 45H238.369V37.272H237.169V45ZM240.763 45H241.963V43.848C242.539 44.632 243.483 45.192 244.571 45.192C246.587 45.192 248.01 43.656 248.01 41.144C248.01 38.68 246.587 37.08 244.571 37.08C243.515 37.08 242.587 37.592 241.963 38.44V34.328H240.763V45ZM241.963 42.904V39.4C242.379 38.728 243.323 38.152 244.266 38.152C245.835 38.152 246.763 39.432 246.763 41.144C246.763 42.856 245.835 44.12 244.266 44.12C243.323 44.12 242.379 43.576 241.963 42.904ZM254.798 45H255.998V39.688C255.998 37.816 254.638 37.08 253.006 37.08C251.742 37.08 250.75 37.496 249.918 38.36L250.478 39.192C251.166 38.456 251.918 38.12 252.846 38.12C253.966 38.12 254.798 38.712 254.798 39.752V41.144C254.174 40.424 253.294 40.088 252.238 40.088C250.926 40.088 249.534 40.904 249.534 42.632C249.534 44.312 250.926 45.192 252.238 45.192C253.278 45.192 254.158 44.824 254.798 44.12V45ZM254.798 43.368C254.334 44.008 253.518 44.328 252.67 44.328C251.55 44.328 250.766 43.624 250.766 42.648C250.766 41.656 251.55 40.952 252.67 40.952C253.518 40.952 254.334 41.272 254.798 41.912V43.368ZM258.403 45H259.603V39.528C259.955 38.904 260.963 38.296 261.699 38.296C261.891 38.296 262.035 38.312 262.179 38.344V37.112C261.123 37.112 260.227 37.704 259.603 38.52V37.272H258.403V45Z" fill="white"/>
<path d="M202.608 121.496C203.488 122.488 204.848 123.192 206.704 123.192C209.584 123.192 210.64 121.608 210.64 120.056C210.64 117.816 208.656 117.272 206.912 116.808C205.552 116.44 204.32 116.12 204.32 115.048C204.32 114.04 205.232 113.352 206.512 113.352C207.68 113.352 208.8 113.752 209.6 114.632L210.4 113.656C209.504 112.712 208.24 112.168 206.608 112.168C204.512 112.168 202.944 113.368 202.944 115.128C202.944 117.224 204.848 117.704 206.56 118.152C207.968 118.536 209.264 118.888 209.264 120.168C209.264 120.984 208.656 122.008 206.752 122.008C205.248 122.008 204.096 121.272 203.392 120.488L202.608 121.496ZM217.807 123H219.007V117.544C219.007 115.864 218.159 115.08 216.543 115.08C215.375 115.08 214.319 115.752 213.775 116.392V112.328H212.575V123H213.775V117.352C214.239 116.728 215.135 116.152 216.063 116.152C217.103 116.152 217.807 116.552 217.807 117.912V123ZM224.779 123.192C227.131 123.192 228.603 121.368 228.603 119.128C228.603 116.888 227.131 115.08 224.779 115.08C222.427 115.08 220.955 116.888 220.955 119.128C220.955 121.368 222.427 123.192 224.779 123.192ZM224.779 122.12C223.131 122.12 222.203 120.712 222.203 119.128C222.203 117.56 223.131 116.152 224.779 116.152C226.427 116.152 227.339 117.56 227.339 119.128C227.339 120.712 226.427 122.12 224.779 122.12ZM237.247 123H238.447L240.911 115.272H239.663L237.775 121.432L235.743 115.272H234.719L232.687 121.432L230.799 115.272H229.551L232.015 123H233.215L235.231 116.792L237.247 123ZM251.266 123H252.466V117.688C252.466 115.816 251.106 115.08 249.474 115.08C248.21 115.08 247.218 115.496 246.386 116.36L246.946 117.192C247.634 116.456 248.386 116.12 249.314 116.12C250.434 116.12 251.266 116.712 251.266 117.752V119.144C250.642 118.424 249.762 118.088 248.706 118.088C247.394 118.088 246.002 118.904 246.002 120.632C246.002 122.312 247.394 123.192 248.706 123.192C249.746 123.192 250.626 122.824 251.266 122.12V123ZM251.266 121.368C250.802 122.008 249.986 122.328 249.138 122.328C248.018 122.328 247.234 121.624 247.234 120.648C247.234 119.656 248.018 118.952 249.138 118.952C249.986 118.952 250.802 119.272 251.266 119.912V121.368ZM260.088 123H261.288V117.576C261.288 115.896 260.44 115.08 258.824 115.08C257.672 115.08 256.616 115.752 256.072 116.392V115.272H254.872V123H256.072V117.352C256.52 116.728 257.416 116.152 258.36 116.152C259.4 116.152 260.088 116.584 260.088 117.944V123ZM269.284 123H270.484V112.328H269.284V116.44C268.66 115.592 267.716 115.08 266.676 115.08C264.644 115.08 263.236 116.68 263.236 119.144C263.236 121.656 264.66 123.192 266.676 123.192C267.764 123.192 268.708 122.632 269.284 121.848V123ZM269.284 120.904C268.852 121.576 267.924 122.12 266.964 122.12C265.412 122.12 264.484 120.856 264.484 119.144C264.484 117.432 265.412 116.152 266.964 116.152C267.924 116.152 268.852 116.728 269.284 117.4V120.904ZM282.245 123H283.445V117.544C283.445 115.864 282.597 115.08 280.981 115.08C279.812 115.08 278.757 115.752 278.213 116.392V112.328H277.013V123H278.213V117.352C278.677 116.728 279.573 116.152 280.501 116.152C281.541 116.152 282.245 116.552 282.245 117.912V123ZM286.433 113.976C286.881 113.976 287.249 113.608 287.249 113.16C287.249 112.712 286.881 112.36 286.433 112.36C286.001 112.36 285.633 112.712 285.633 113.16C285.633 113.608 286.001 113.976 286.433 113.976ZM285.841 123H287.041V115.272H285.841V123ZM295.034 123H296.234V112.328H295.034V116.44C294.41 115.592 293.466 115.08 292.426 115.08C290.394 115.08 288.986 116.68 288.986 119.144C288.986 121.656 290.41 123.192 292.426 123.192C293.514 123.192 294.458 122.632 295.034 121.848V123ZM295.034 120.904C294.602 121.576 293.674 122.12 292.714 122.12C291.162 122.12 290.234 120.856 290.234 119.144C290.234 117.432 291.162 116.152 292.714 116.152C293.674 116.152 294.602 116.728 295.034 117.4V120.904ZM298.19 119.128C298.19 121.544 299.838 123.192 302.126 123.192C303.39 123.192 304.43 122.776 305.198 122.008L304.622 121.224C304.014 121.848 303.118 122.2 302.238 122.2C300.574 122.2 299.549 120.984 299.454 119.528H305.71V119.224C305.71 116.904 304.334 115.08 301.998 115.08C299.789 115.08 298.19 116.888 298.19 119.128ZM301.982 116.072C303.742 116.072 304.51 117.496 304.526 118.648H299.454C299.518 117.464 300.334 116.072 301.982 116.072ZM205.152 142.192C205.856 142.192 206.288 141.984 206.592 141.696L206.24 140.8C206.08 140.976 205.76 141.12 205.424 141.12C204.896 141.12 204.64 140.704 204.64 140.128V135.328H206.208V134.272H204.64V132.16H203.44V134.272H202.16V135.328H203.44V140.384C203.44 141.536 204.016 142.192 205.152 142.192ZM213.135 142H214.335V136.544C214.335 134.864 213.487 134.08 211.871 134.08C210.703 134.08 209.647 134.752 209.103 135.392V131.328H207.903V142H209.103V136.352C209.567 135.728 210.463 135.152 211.391 135.152C212.431 135.152 213.135 135.552 213.135 136.912V142ZM216.283 138.128C216.283 140.544 217.931 142.192 220.219 142.192C221.483 142.192 222.523 141.776 223.291 141.008L222.715 140.224C222.107 140.848 221.211 141.2 220.331 141.2C218.667 141.2 217.643 139.984 217.547 138.528H223.803V138.224C223.803 135.904 222.427 134.08 220.091 134.08C217.883 134.08 216.283 135.888 216.283 138.128ZM220.075 135.072C221.835 135.072 222.603 136.496 222.619 137.648H217.547C217.611 136.464 218.427 135.072 220.075 135.072ZM229.28 140.496C230.16 141.488 231.52 142.192 233.376 142.192C236.256 142.192 237.312 140.608 237.312 139.056C237.312 136.816 235.328 136.272 233.584 135.808C232.224 135.44 230.992 135.12 230.992 134.048C230.992 133.04 231.904 132.352 233.184 132.352C234.352 132.352 235.472 132.752 236.272 133.632L237.072 132.656C236.176 131.712 234.912 131.168 233.28 131.168C231.184 131.168 229.616 132.368 229.616 134.128C229.616 136.224 231.52 136.704 233.232 137.152C234.64 137.536 235.936 137.888 235.936 139.168C235.936 139.984 235.328 141.008 233.424 141.008C231.92 141.008 230.768 140.272 230.064 139.488L229.28 140.496ZM239.839 132.976C240.287 132.976 240.655 132.608 240.655 132.16C240.655 131.712 240.287 131.36 239.839 131.36C239.407 131.36 239.039 131.712 239.039 132.16C239.039 132.608 239.407 132.976 239.839 132.976ZM239.247 142H240.447V134.272H239.247V142ZM248.441 142H249.641V131.328H248.441V135.44C247.817 134.592 246.873 134.08 245.833 134.08C243.801 134.08 242.393 135.68 242.393 138.144C242.393 140.656 243.817 142.192 245.833 142.192C246.921 142.192 247.865 141.632 248.441 140.848V142ZM248.441 139.904C248.009 140.576 247.081 141.12 246.121 141.12C244.569 141.12 243.641 139.856 243.641 138.144C243.641 136.432 244.569 135.152 246.121 135.152C247.081 135.152 248.009 135.728 248.441 136.4V139.904ZM251.596 138.128C251.596 140.544 253.244 142.192 255.532 142.192C256.796 142.192 257.836 141.776 258.604 141.008L258.028 140.224C257.42 140.848 256.524 141.2 255.644 141.2C253.98 141.2 252.956 139.984 252.86 138.528H259.116V138.224C259.116 135.904 257.74 134.08 255.404 134.08C253.196 134.08 251.596 135.888 251.596 138.128ZM255.388 135.072C257.148 135.072 257.916 136.496 257.932 137.648H252.86C252.924 136.464 253.74 135.072 255.388 135.072ZM261.059 142H262.259V140.848C262.835 141.632 263.779 142.192 264.867 142.192C266.883 142.192 268.307 140.656 268.307 138.144C268.307 135.68 266.883 134.08 264.867 134.08C263.811 134.08 262.883 134.592 262.259 135.44V131.328H261.059V142ZM262.259 139.904V136.4C262.675 135.728 263.619 135.152 264.563 135.152C266.131 135.152 267.059 136.432 267.059 138.144C267.059 139.856 266.131 141.12 264.563 141.12C263.619 141.12 262.675 140.576 262.259 139.904ZM275.095 142H276.295V136.688C276.295 134.816 274.935 134.08 273.303 134.08C272.039 134.08 271.047 134.496 270.215 135.36L270.775 136.192C271.463 135.456 272.215 135.12 273.143 135.12C274.263 135.12 275.095 135.712 275.095 136.752V138.144C274.471 137.424 273.591 137.088 272.535 137.088C271.223 137.088 269.831 137.904 269.831 139.632C269.831 141.312 271.223 142.192 272.535 142.192C273.575 142.192 274.455 141.824 275.095 141.12V142ZM275.095 140.368C274.631 141.008 273.815 141.328 272.967 141.328C271.847 141.328 271.062 140.624 271.062 139.648C271.062 138.656 271.847 137.952 272.967 137.952C273.815 137.952 274.631 138.272 275.095 138.912V140.368ZM278.7 142H279.9V136.528C280.252 135.904 281.26 135.296 281.996 135.296C282.188 135.296 282.332 135.312 282.476 135.344V134.112C281.42 134.112 280.524 134.704 279.9 135.52V134.272H278.7V142Z" fill="white"/>
</svg>
